<?xml version="1.0" encoding="UTF-8"?>
<svg xmlns="http://www.w3.org/2000/svg" xmlns:xlink="http://www.w3.org/1999/xlink" width="353.98pt" height="319.48pt" viewBox="0 0 353.98 319.48" version="1.1">
<g id="surface1">
<path style=" stroke:none;fill-rule:nonzero;fill:rgb(0%,44.7052%,73.724365%);fill-opacity:1;" d="M 116.914063 29.851563 C 94.019531 29.851563 75.457031 48.414063 75.457031 71.3125 C 75.457031 94.210938 94.019531 112.773438 116.914063 112.773438 C 139.8125 112.773438 158.375 94.210938 158.375 71.3125 C 158.375 48.414063 139.8125 29.851563 116.914063 29.851563 "/>
<path style=" stroke:none;fill-rule:nonzero;fill:rgb(0.390625%,44.921875%,73.828125%);fill-opacity:1;" d="M 116.839844 112.667969 C 139.644531 112.667969 158.132813 94.183594 158.132813 71.378906 C 158.132813 48.574219 139.644531 30.085938 116.839844 30.085938 C 94.035156 30.085938 75.550781 48.574219 75.550781 71.378906 C 75.550781 94.183594 94.035156 112.667969 116.839844 112.667969 "/>
<path style=" stroke:none;fill-rule:nonzero;fill:rgb(0.78125%,45.137024%,73.930359%);fill-opacity:1;" d="M 116.765625 112.566406 C 139.476563 112.566406 157.886719 94.152344 157.886719 71.445313 C 157.886719 48.734375 139.476563 30.320313 116.765625 30.320313 C 94.054688 30.320313 75.644531 48.734375 75.644531 71.445313 C 75.644531 94.152344 94.054688 112.566406 116.765625 112.566406 "/>
<path style=" stroke:none;fill-rule:nonzero;fill:rgb(1.173401%,45.353699%,74.032593%);fill-opacity:1;" d="M 116.691406 112.460938 C 139.308594 112.460938 157.640625 94.125 157.640625 71.511719 C 157.640625 48.890625 139.308594 30.558594 116.691406 30.558594 C 94.074219 30.558594 75.738281 48.890625 75.738281 71.511719 C 75.738281 94.125 94.074219 112.460938 116.691406 112.460938 "/>
<path style=" stroke:none;fill-rule:nonzero;fill:rgb(1.5625%,45.568848%,74.134827%);fill-opacity:1;" d="M 116.613281 112.355469 C 139.136719 112.355469 157.398438 94.097656 157.398438 71.574219 C 157.398438 49.050781 139.136719 30.792969 116.613281 30.792969 C 94.089844 30.792969 75.832031 49.050781 75.832031 71.574219 C 75.832031 94.097656 94.089844 112.355469 116.613281 112.355469 "/>
<path style=" stroke:none;fill-rule:nonzero;fill:rgb(1.953125%,45.785522%,74.238586%);fill-opacity:1;" d="M 116.539063 112.253906 C 138.96875 112.253906 157.152344 94.070313 157.152344 71.640625 C 157.152344 49.210938 138.96875 31.027344 116.539063 31.027344 C 94.109375 31.027344 75.925781 49.210938 75.925781 71.640625 C 75.925781 94.070313 94.109375 112.253906 116.539063 112.253906 "/>
<path style=" stroke:none;fill-rule:nonzero;fill:rgb(2.34375%,46.000671%,74.34082%);fill-opacity:1;" d="M 116.464844 112.148438 C 138.800781 112.148438 156.90625 94.042969 156.90625 71.707031 C 156.90625 49.371094 138.800781 31.261719 116.464844 31.261719 C 94.128906 31.261719 76.019531 49.371094 76.019531 71.707031 C 76.019531 94.042969 94.128906 112.148438 116.464844 112.148438 "/>
<path style=" stroke:none;fill-rule:nonzero;fill:rgb(2.735901%,46.217346%,74.443054%);fill-opacity:1;" d="M 116.386719 112.046875 C 138.632813 112.046875 156.664063 94.015625 156.664063 71.769531 C 156.664063 49.527344 138.632813 31.496094 116.386719 31.496094 C 94.144531 31.496094 76.113281 49.527344 76.113281 71.769531 C 76.113281 94.015625 94.144531 112.046875 116.386719 112.046875 "/>
<path style=" stroke:none;fill-rule:nonzero;fill:rgb(3.125%,46.432495%,74.545288%);fill-opacity:1;" d="M 116.3125 111.941406 C 138.464844 111.941406 156.417969 93.984375 156.417969 71.835938 C 156.417969 49.6875 138.464844 31.730469 116.3125 31.730469 C 94.164063 31.730469 76.210938 49.6875 76.210938 71.835938 C 76.210938 93.984375 94.164063 111.941406 116.3125 111.941406 "/>
<path style=" stroke:none;fill-rule:nonzero;fill:rgb(3.515625%,46.64917%,74.649048%);fill-opacity:1;" d="M 116.238281 111.839844 C 138.292969 111.839844 156.175781 93.957031 156.175781 71.902344 C 156.175781 49.847656 138.292969 31.96875 116.238281 31.96875 C 94.183594 31.96875 76.300781 49.847656 76.300781 71.902344 C 76.300781 93.957031 94.183594 111.839844 116.238281 111.839844 "/>
<path style=" stroke:none;fill-rule:nonzero;fill:rgb(3.90625%,46.864319%,74.751282%);fill-opacity:1;" d="M 116.164063 111.734375 C 138.125 111.734375 155.929688 93.929688 155.929688 71.96875 C 155.929688 50.003906 138.125 32.199219 116.164063 32.199219 C 94.199219 32.199219 76.394531 50.003906 76.394531 71.96875 C 76.394531 93.929688 94.199219 111.734375 116.164063 111.734375 "/>
<path style=" stroke:none;fill-rule:nonzero;fill:rgb(4.298401%,47.08252%,74.853516%);fill-opacity:1;" d="M 116.089844 111.628906 C 137.953125 111.628906 155.683594 93.902344 155.683594 72.03125 C 155.683594 50.164063 137.953125 32.4375 116.089844 32.4375 C 94.21875 32.4375 76.488281 50.164063 76.488281 72.03125 C 76.488281 93.902344 94.21875 111.628906 116.089844 111.628906 "/>
<path style=" stroke:none;fill-rule:nonzero;fill:rgb(4.6875%,47.297668%,74.95575%);fill-opacity:1;" d="M 116.011719 111.527344 C 137.785156 111.527344 155.441406 93.871094 155.441406 72.097656 C 155.441406 50.324219 137.785156 32.671875 116.011719 32.671875 C 94.234375 32.671875 76.585938 50.324219 76.585938 72.097656 C 76.585938 93.871094 94.234375 111.527344 116.011719 111.527344 "/>
<path style=" stroke:none;fill-rule:nonzero;fill:rgb(5.078125%,47.512817%,75.059509%);fill-opacity:1;" d="M 115.9375 111.421875 C 137.617188 111.421875 155.195313 93.847656 155.195313 72.164063 C 155.195313 50.484375 137.617188 32.90625 115.9375 32.90625 C 94.253906 32.90625 76.679688 50.484375 76.679688 72.164063 C 76.679688 93.847656 94.253906 111.421875 115.9375 111.421875 "/>
<path style=" stroke:none;fill-rule:nonzero;fill:rgb(5.46875%,47.729492%,75.161743%);fill-opacity:1;" d="M 115.863281 111.320313 C 137.449219 111.320313 154.949219 93.816406 154.949219 72.230469 C 154.949219 50.640625 137.449219 33.140625 115.863281 33.140625 C 94.273438 33.140625 76.773438 50.640625 76.773438 72.230469 C 76.773438 93.816406 94.273438 111.320313 115.863281 111.320313 "/>
<path style=" stroke:none;fill-rule:nonzero;fill:rgb(5.860901%,47.946167%,75.263977%);fill-opacity:1;" d="M 115.785156 111.214844 C 137.28125 111.214844 154.707031 93.789063 154.707031 72.296875 C 154.707031 50.800781 137.28125 33.375 115.785156 33.375 C 94.292969 33.375 76.867188 50.800781 76.867188 72.296875 C 76.867188 93.789063 94.292969 111.214844 115.785156 111.214844 "/>
<path style=" stroke:none;fill-rule:nonzero;fill:rgb(6.25%,48.161316%,75.366211%);fill-opacity:1;" d="M 115.710938 111.113281 C 137.109375 111.113281 154.460938 93.761719 154.460938 72.359375 C 154.460938 50.960938 137.109375 33.609375 115.710938 33.609375 C 94.308594 33.609375 76.960938 50.960938 76.960938 72.359375 C 76.960938 93.761719 94.308594 111.113281 115.710938 111.113281 "/>
<path style=" stroke:none;fill-rule:nonzero;fill:rgb(6.640625%,48.376465%,75.469971%);fill-opacity:1;" d="M 115.636719 111.007813 C 136.941406 111.007813 154.214844 93.734375 154.214844 72.425781 C 154.214844 51.117188 136.941406 33.847656 115.636719 33.847656 C 94.328125 33.847656 77.054688 51.117188 77.054688 72.425781 C 77.054688 93.734375 94.328125 111.007813 115.636719 111.007813 "/>
<path style=" stroke:none;fill-rule:nonzero;fill:rgb(7.03125%,48.59314%,75.572205%);fill-opacity:1;" d="M 115.558594 110.902344 C 136.773438 110.902344 153.972656 93.703125 153.972656 72.492188 C 153.972656 51.277344 136.773438 34.082031 115.558594 34.082031 C 94.347656 34.082031 77.148438 51.277344 77.148438 72.492188 C 77.148438 93.703125 94.347656 110.902344 115.558594 110.902344 "/>
<path style=" stroke:none;fill-rule:nonzero;fill:rgb(7.423401%,48.809814%,75.674438%);fill-opacity:1;" d="M 115.484375 110.800781 C 136.605469 110.800781 153.726563 93.679688 153.726563 72.558594 C 153.726563 51.4375 136.605469 34.316406 115.484375 34.316406 C 94.363281 34.316406 77.242188 51.4375 77.242188 72.558594 C 77.242188 93.679688 94.363281 110.800781 115.484375 110.800781 "/>
<path style=" stroke:none;fill-rule:nonzero;fill:rgb(7.8125%,49.024963%,75.776672%);fill-opacity:1;" d="M 115.410156 110.695313 C 136.4375 110.695313 153.484375 93.648438 153.484375 72.621094 C 153.484375 51.597656 136.4375 34.550781 115.410156 34.550781 C 94.382813 34.550781 77.335938 51.597656 77.335938 72.621094 C 77.335938 93.648438 94.382813 110.695313 115.410156 110.695313 "/>
<path style=" stroke:none;fill-rule:nonzero;fill:rgb(8.203125%,49.241638%,75.880432%);fill-opacity:1;" d="M 115.335938 110.59375 C 136.269531 110.59375 153.238281 93.621094 153.238281 72.6875 C 153.238281 51.753906 136.269531 34.785156 115.335938 34.785156 C 94.402344 34.785156 77.429688 51.753906 77.429688 72.6875 C 77.429688 93.621094 94.402344 110.59375 115.335938 110.59375 "/>
<path style=" stroke:none;fill-rule:nonzero;fill:rgb(8.59375%,49.456787%,75.982666%);fill-opacity:1;" d="M 115.257813 110.488281 C 136.097656 110.488281 152.992188 93.59375 152.992188 72.753906 C 152.992188 51.914063 136.097656 35.019531 115.257813 35.019531 C 94.417969 35.019531 77.523438 51.914063 77.523438 72.753906 C 77.523438 93.59375 94.417969 110.488281 115.257813 110.488281 "/>
<path style=" stroke:none;fill-rule:nonzero;fill:rgb(8.985901%,49.673462%,76.086426%);fill-opacity:1;" d="M 115.183594 110.386719 C 135.929688 110.386719 152.746094 93.566406 152.746094 72.820313 C 152.746094 52.074219 135.929688 35.257813 115.183594 35.257813 C 94.4375 35.257813 77.617188 52.074219 77.617188 72.820313 C 77.617188 93.566406 94.4375 110.386719 115.183594 110.386719 "/>
<path style=" stroke:none;fill-rule:nonzero;fill:rgb(9.375%,49.888611%,76.18866%);fill-opacity:1;" d="M 115.109375 110.28125 C 135.761719 110.28125 152.503906 93.535156 152.503906 72.886719 C 152.503906 52.234375 135.761719 35.488281 115.109375 35.488281 C 94.457031 35.488281 77.714844 52.234375 77.714844 72.886719 C 77.714844 93.535156 94.457031 110.28125 115.109375 110.28125 "/>
<path style=" stroke:none;fill-rule:nonzero;fill:rgb(9.765625%,50.105286%,76.290894%);fill-opacity:1;" d="M 115.03125 110.175781 C 135.59375 110.175781 152.257813 93.511719 152.257813 72.949219 C 152.257813 52.390625 135.59375 35.726563 115.03125 35.726563 C 94.472656 35.726563 77.808594 52.390625 77.808594 72.949219 C 77.808594 93.511719 94.472656 110.175781 115.03125 110.175781 "/>
<path style=" stroke:none;fill-rule:nonzero;fill:rgb(10.15625%,50.320435%,76.393127%);fill-opacity:1;" d="M 114.957031 110.070313 C 135.421875 110.070313 152.011719 93.480469 152.011719 73.015625 C 152.011719 52.550781 135.421875 35.960938 114.957031 35.960938 C 94.492188 35.960938 77.898438 52.550781 77.898438 73.015625 C 77.898438 93.480469 94.492188 110.070313 114.957031 110.070313 "/>
<path style=" stroke:none;fill-rule:nonzero;fill:rgb(10.548401%,50.537109%,76.496887%);fill-opacity:1;" d="M 114.882813 109.96875 C 135.253906 109.96875 151.769531 93.453125 151.769531 73.082031 C 151.769531 52.710938 135.253906 36.195313 114.882813 36.195313 C 94.511719 36.195313 77.992188 52.710938 77.992188 73.082031 C 77.992188 93.453125 94.511719 109.96875 114.882813 109.96875 "/>
<path style=" stroke:none;fill-rule:nonzero;fill:rgb(10.9375%,50.752258%,76.599121%);fill-opacity:1;" d="M 114.808594 109.863281 C 135.085938 109.863281 151.523438 93.425781 151.523438 73.148438 C 151.523438 52.867188 135.085938 36.429688 114.808594 36.429688 C 94.527344 36.429688 78.089844 52.867188 78.089844 73.148438 C 78.089844 93.425781 94.527344 109.863281 114.808594 109.863281 "/>
<path style=" stroke:none;fill-rule:nonzero;fill:rgb(11.328125%,50.968933%,76.701355%);fill-opacity:1;" d="M 114.730469 109.761719 C 134.917969 109.761719 151.28125 93.398438 151.28125 73.210938 C 151.28125 53.027344 134.917969 36.664063 114.730469 36.664063 C 94.546875 36.664063 78.183594 53.027344 78.183594 73.210938 C 78.183594 93.398438 94.546875 109.761719 114.730469 109.761719 "/>
<path style=" stroke:none;fill-rule:nonzero;fill:rgb(11.71875%,51.185608%,76.803589%);fill-opacity:1;" d="M 114.65625 109.65625 C 134.746094 109.65625 151.035156 93.367188 151.035156 73.277344 C 151.035156 53.1875 134.746094 36.898438 114.65625 36.898438 C 94.566406 36.898438 78.277344 53.1875 78.277344 73.277344 C 78.277344 93.367188 94.566406 109.65625 114.65625 109.65625 "/>
<path style=" stroke:none;fill-rule:nonzero;fill:rgb(12.110901%,51.402283%,76.907349%);fill-opacity:1;" d="M 114.582031 109.554688 C 134.578125 109.554688 150.789063 93.339844 150.789063 73.34375 C 150.789063 53.347656 134.578125 37.136719 114.582031 37.136719 C 94.582031 37.136719 78.371094 53.347656 78.371094 73.34375 C 78.371094 93.339844 94.582031 109.554688 114.582031 109.554688 "/>
<path style=" stroke:none;fill-rule:nonzero;fill:rgb(12.695313%,51.724243%,77.059937%);fill-opacity:1;" d="M 114.503906 109.449219 C 134.410156 109.449219 150.546875 93.3125 150.546875 73.410156 C 150.546875 53.503906 134.410156 37.367188 114.503906 37.367188 C 94.601563 37.367188 78.464844 53.503906 78.464844 73.410156 C 78.464844 93.3125 94.601563 109.449219 114.503906 109.449219 "/>
<path style=" stroke:none;fill-rule:nonzero;fill:rgb(12.890625%,51.832581%,77.111816%);fill-opacity:1;" d="M 114.429688 109.34375 C 134.242188 109.34375 150.300781 93.285156 150.300781 73.472656 C 150.300781 53.660156 134.242188 37.601563 114.429688 37.601563 C 94.617188 37.601563 78.558594 53.660156 78.558594 73.472656 C 78.558594 93.285156 94.617188 109.34375 114.429688 109.34375 "/>
<path style=" stroke:none;fill-rule:nonzero;fill:rgb(13.28125%,52.049255%,77.21405%);fill-opacity:1;" d="M 114.355469 109.242188 C 134.070313 109.242188 150.058594 93.257813 150.058594 73.539063 C 150.058594 53.824219 134.070313 37.835938 114.355469 37.835938 C 94.636719 37.835938 78.652344 53.824219 78.652344 73.539063 C 78.652344 93.257813 94.636719 109.242188 114.355469 109.242188 "/>
<path style=" stroke:none;fill-rule:nonzero;fill:rgb(13.673401%,52.26593%,77.31781%);fill-opacity:1;" d="M 114.277344 109.136719 C 133.902344 109.136719 149.8125 93.226563 149.8125 73.605469 C 149.8125 53.980469 133.902344 38.074219 114.277344 38.074219 C 94.65625 38.074219 78.746094 53.980469 78.746094 73.605469 C 78.746094 93.226563 94.65625 109.136719 114.277344 109.136719 "/>
<path style=" stroke:none;fill-rule:nonzero;fill:rgb(14.0625%,52.481079%,77.420044%);fill-opacity:1;" d="M 114.203125 109.035156 C 133.734375 109.035156 149.566406 93.199219 149.566406 73.671875 C 149.566406 54.140625 133.734375 38.308594 114.203125 38.308594 C 94.671875 38.308594 78.839844 54.140625 78.839844 73.671875 C 78.839844 93.199219 94.671875 109.035156 114.203125 109.035156 "/>
<path style=" stroke:none;fill-rule:nonzero;fill:rgb(14.453125%,52.696228%,77.522278%);fill-opacity:1;" d="M 114.128906 108.929688 C 133.566406 108.929688 149.320313 93.171875 149.320313 73.738281 C 149.320313 54.300781 133.566406 38.542969 114.128906 38.542969 C 94.691406 38.542969 78.9375 54.300781 78.9375 73.738281 C 78.9375 93.171875 94.691406 108.929688 114.128906 108.929688 "/>
<path style=" stroke:none;fill-rule:nonzero;fill:rgb(14.84375%,52.912903%,77.624512%);fill-opacity:1;" d="M 114.054688 108.824219 C 133.394531 108.824219 149.078125 93.144531 149.078125 73.804688 C 149.078125 54.457031 133.394531 38.777344 114.054688 38.777344 C 94.710938 38.777344 79.027344 54.457031 79.027344 73.804688 C 79.027344 93.144531 94.710938 108.824219 114.054688 108.824219 "/>
<path style=" stroke:none;fill-rule:nonzero;fill:rgb(15.235901%,53.129578%,77.728271%);fill-opacity:1;" d="M 113.976563 108.722656 C 133.226563 108.722656 148.832031 93.117188 148.832031 73.867188 C 148.832031 54.617188 133.226563 39.015625 113.976563 39.015625 C 94.726563 39.015625 79.121094 54.617188 79.121094 73.867188 C 79.121094 93.117188 94.726563 108.722656 113.976563 108.722656 "/>
<path style=" stroke:none;fill-rule:nonzero;fill:rgb(15.625%,53.344727%,77.830505%);fill-opacity:1;" d="M 113.902344 108.617188 C 133.058594 108.617188 148.589844 93.089844 148.589844 73.933594 C 148.589844 54.777344 133.058594 39.246094 113.902344 39.246094 C 94.746094 39.246094 79.21875 54.777344 79.21875 73.933594 C 79.21875 93.089844 94.746094 108.617188 113.902344 108.617188 "/>
<path style=" stroke:none;fill-rule:nonzero;fill:rgb(16.015625%,53.561401%,77.932739%);fill-opacity:1;" d="M 113.828125 108.515625 C 132.890625 108.515625 148.34375 93.058594 148.34375 74 C 148.34375 54.933594 132.890625 39.484375 113.828125 39.484375 C 94.765625 39.484375 79.3125 54.933594 79.3125 74 C 79.3125 93.058594 94.765625 108.515625 113.828125 108.515625 "/>
<path style=" stroke:none;fill-rule:nonzero;fill:rgb(16.40625%,53.77655%,78.034973%);fill-opacity:1;" d="M 113.753906 108.410156 C 132.71875 108.410156 148.097656 93.03125 148.097656 74.0625 C 148.097656 55.09375 132.71875 39.71875 113.753906 39.71875 C 94.78125 39.71875 79.40625 55.09375 79.40625 74.0625 C 79.40625 93.03125 94.78125 108.410156 113.753906 108.410156 "/>
<path style=" stroke:none;fill-rule:nonzero;fill:rgb(16.993713%,54.101563%,78.189087%);fill-opacity:1;" d="M 113.675781 108.308594 C 132.550781 108.308594 147.855469 93.003906 147.855469 74.128906 C 147.855469 55.253906 132.550781 39.949219 113.675781 39.949219 C 94.800781 39.949219 79.5 55.253906 79.5 74.128906 C 79.5 93.003906 94.800781 108.308594 113.675781 108.308594 "/>
<path style=" stroke:none;fill-rule:nonzero;fill:rgb(17.382813%,54.316711%,78.291321%);fill-opacity:1;" d="M 113.601563 108.203125 C 132.382813 108.203125 147.609375 92.976563 147.609375 74.195313 C 147.609375 55.414063 132.382813 40.1875 113.601563 40.1875 C 94.820313 40.1875 79.59375 55.414063 79.59375 74.195313 C 79.59375 92.976563 94.820313 108.203125 113.601563 108.203125 "/>
<path style=" stroke:none;fill-rule:nonzero;fill:rgb(17.578125%,54.425049%,78.343201%);fill-opacity:1;" d="M 113.527344 108.101563 C 132.214844 108.101563 147.363281 92.949219 147.363281 74.261719 C 147.363281 55.574219 132.214844 40.421875 113.527344 40.421875 C 94.835938 40.421875 79.6875 55.574219 79.6875 74.261719 C 79.6875 92.949219 94.835938 108.101563 113.527344 108.101563 "/>
<path style=" stroke:none;fill-rule:nonzero;fill:rgb(17.96875%,54.640198%,78.445435%);fill-opacity:1;" d="M 113.449219 107.996094 C 132.046875 107.996094 147.121094 92.921875 147.121094 74.324219 C 147.121094 55.730469 132.046875 40.65625 113.449219 40.65625 C 94.855469 40.65625 79.78125 55.730469 79.78125 74.324219 C 79.78125 92.921875 94.855469 107.996094 113.449219 107.996094 "/>
<path style=" stroke:none;fill-rule:nonzero;fill:rgb(18.360901%,54.856873%,78.549194%);fill-opacity:1;" d="M 113.375 107.890625 C 131.878906 107.890625 146.875 92.890625 146.875 74.390625 C 146.875 55.890625 131.878906 40.890625 113.375 40.890625 C 94.875 40.890625 79.875 55.890625 79.875 74.390625 C 79.875 92.890625 94.875 107.890625 113.375 107.890625 "/>
<path style=" stroke:none;fill-rule:nonzero;fill:rgb(18.75%,55.072021%,78.651428%);fill-opacity:1;" d="M 113.300781 107.785156 C 131.707031 107.785156 146.632813 92.863281 146.632813 74.457031 C 146.632813 56.050781 131.707031 41.125 113.300781 41.125 C 94.894531 41.125 79.96875 56.050781 79.96875 74.457031 C 79.96875 92.863281 94.894531 107.785156 113.300781 107.785156 "/>
<path style=" stroke:none;fill-rule:nonzero;fill:rgb(19.140625%,55.288696%,78.753662%);fill-opacity:1;" d="M 113.222656 107.683594 C 131.539063 107.683594 146.386719 92.835938 146.386719 74.523438 C 146.386719 56.210938 131.539063 41.363281 113.222656 41.363281 C 94.910156 41.363281 80.0625 56.210938 80.0625 74.523438 C 80.0625 92.835938 94.910156 107.683594 113.222656 107.683594 "/>
<path style=" stroke:none;fill-rule:nonzero;fill:rgb(19.53125%,55.505371%,78.855896%);fill-opacity:1;" d="M 113.148438 107.578125 C 131.367188 107.578125 146.140625 92.808594 146.140625 74.589844 C 146.140625 56.367188 131.367188 41.597656 113.148438 41.597656 C 94.929688 41.597656 80.15625 56.367188 80.15625 74.589844 C 80.15625 92.808594 94.929688 107.578125 113.148438 107.578125 "/>
<path style=" stroke:none;fill-rule:nonzero;fill:rgb(19.923401%,55.722046%,78.959656%);fill-opacity:1;" d="M 113.074219 107.476563 C 131.199219 107.476563 145.894531 92.78125 145.894531 74.652344 C 145.894531 56.527344 131.199219 41.832031 113.074219 41.832031 C 94.945313 41.832031 80.25 56.527344 80.25 74.652344 C 80.25 92.78125 94.945313 107.476563 113.074219 107.476563 "/>
<path style=" stroke:none;fill-rule:nonzero;fill:rgb(20.3125%,55.937195%,79.06189%);fill-opacity:1;" d="M 112.996094 107.371094 C 131.03125 107.371094 145.652344 92.753906 145.652344 74.71875 C 145.652344 56.683594 131.03125 42.066406 112.996094 42.066406 C 94.964844 42.066406 80.347656 56.683594 80.347656 74.71875 C 80.347656 92.753906 94.964844 107.371094 112.996094 107.371094 "/>
<path style=" stroke:none;fill-rule:nonzero;fill:rgb(20.703125%,56.152344%,79.164124%);fill-opacity:1;" d="M 112.921875 107.269531 C 130.863281 107.269531 145.40625 92.726563 145.40625 74.785156 C 145.40625 56.84375 130.863281 42.300781 112.921875 42.300781 C 94.984375 42.300781 80.4375 56.84375 80.4375 74.785156 C 80.4375 92.726563 94.984375 107.269531 112.921875 107.269531 "/>
<path style=" stroke:none;fill-rule:nonzero;fill:rgb(21.290588%,56.477356%,79.318237%);fill-opacity:1;" d="M 112.847656 107.164063 C 130.695313 107.164063 145.160156 92.695313 145.160156 74.851563 C 145.160156 57.003906 130.695313 42.535156 112.847656 42.535156 C 95.003906 42.535156 80.535156 57.003906 80.535156 74.851563 C 80.535156 92.695313 95.003906 107.164063 112.847656 107.164063 "/>
<path style=" stroke:none;fill-rule:nonzero;fill:rgb(21.681213%,56.694031%,79.421997%);fill-opacity:1;" d="M 112.773438 107.058594 C 130.527344 107.058594 144.917969 92.667969 144.917969 74.914063 C 144.917969 57.160156 130.527344 42.769531 112.773438 42.769531 C 95.019531 42.769531 80.628906 57.160156 80.628906 74.914063 C 80.628906 92.667969 95.019531 107.058594 112.773438 107.058594 "/>
<path style=" stroke:none;fill-rule:nonzero;fill:rgb(22.070313%,56.90918%,79.524231%);fill-opacity:1;" d="M 112.699219 106.957031 C 130.355469 106.957031 144.671875 92.640625 144.671875 74.980469 C 144.671875 57.324219 130.355469 43.007813 112.699219 43.007813 C 95.039063 43.007813 80.722656 57.324219 80.722656 74.980469 C 80.722656 92.640625 95.039063 106.957031 112.699219 106.957031 "/>
<path style=" stroke:none;fill-rule:nonzero;fill:rgb(22.265625%,57.015991%,79.574585%);fill-opacity:1;" d="M 112.621094 106.851563 C 130.1875 106.851563 144.429688 92.613281 144.429688 75.046875 C 144.429688 57.480469 130.1875 43.242188 112.621094 43.242188 C 95.054688 43.242188 80.816406 57.480469 80.816406 75.046875 C 80.816406 92.613281 95.054688 106.851563 112.621094 106.851563 "/>
<path style=" stroke:none;fill-rule:nonzero;fill:rgb(22.65625%,57.232666%,79.676819%);fill-opacity:1;" d="M 112.546875 106.75 C 130.019531 106.75 144.183594 92.585938 144.183594 75.113281 C 144.183594 57.640625 130.019531 43.476563 112.546875 43.476563 C 95.074219 43.476563 80.910156 57.640625 80.910156 75.113281 C 80.910156 92.585938 95.074219 106.75 112.546875 106.75 "/>
<path style=" stroke:none;fill-rule:nonzero;fill:rgb(23.048401%,57.449341%,79.780579%);fill-opacity:1;" d="M 112.46875 106.644531 C 129.851563 106.644531 143.9375 92.558594 143.9375 75.179688 C 143.9375 57.800781 129.851563 43.710938 112.46875 43.710938 C 95.09375 43.710938 81.003906 57.800781 81.003906 75.179688 C 81.003906 92.558594 95.09375 106.644531 112.46875 106.644531 "/>
<path style=" stroke:none;fill-rule:nonzero;fill:rgb(23.4375%,57.66449%,79.882813%);fill-opacity:1;" d="M 112.394531 106.542969 C 129.679688 106.542969 143.695313 92.527344 143.695313 75.242188 C 143.695313 57.960938 129.679688 43.945313 112.394531 43.945313 C 95.109375 43.945313 81.097656 57.960938 81.097656 75.242188 C 81.097656 92.527344 95.109375 106.542969 112.394531 106.542969 "/>
<path style=" stroke:none;fill-rule:nonzero;fill:rgb(23.828125%,57.881165%,79.985046%);fill-opacity:1;" d="M 112.320313 106.4375 C 129.511719 106.4375 143.449219 92.5 143.449219 75.308594 C 143.449219 58.117188 129.511719 44.179688 112.320313 44.179688 C 95.128906 44.179688 81.191406 58.117188 81.191406 75.308594 C 81.191406 92.5 95.128906 106.4375 112.320313 106.4375 "/>
<path style=" stroke:none;fill-rule:nonzero;fill:rgb(24.21875%,58.096313%,80.088806%);fill-opacity:1;" d="M 112.246094 106.332031 C 129.34375 106.332031 143.203125 92.472656 143.203125 75.375 C 143.203125 58.277344 129.34375 44.414063 112.246094 44.414063 C 95.148438 44.414063 81.285156 58.277344 81.285156 75.375 C 81.285156 92.472656 95.148438 106.332031 112.246094 106.332031 "/>
<path style=" stroke:none;fill-rule:nonzero;fill:rgb(24.610901%,58.312988%,80.19104%);fill-opacity:1;" d="M 112.171875 106.230469 C 129.175781 106.230469 142.960938 92.445313 142.960938 75.441406 C 142.960938 58.433594 129.175781 44.648438 112.171875 44.648438 C 95.164063 44.648438 81.378906 58.433594 81.378906 75.441406 C 81.378906 92.445313 95.164063 106.230469 112.171875 106.230469 "/>
<path style=" stroke:none;fill-rule:nonzero;fill:rgb(25.195313%,58.636475%,80.345154%);fill-opacity:1;" d="M 112.09375 106.125 C 129.003906 106.125 142.714844 92.417969 142.714844 75.503906 C 142.714844 58.59375 129.003906 44.886719 112.09375 44.886719 C 95.183594 44.886719 81.472656 58.59375 81.472656 75.503906 C 81.472656 92.417969 95.183594 106.125 112.09375 106.125 "/>
<path style=" stroke:none;fill-rule:nonzero;fill:rgb(25.585938%,58.853149%,80.447388%);fill-opacity:1;" d="M 112.019531 106.023438 C 128.835938 106.023438 142.46875 92.390625 142.46875 75.570313 C 142.46875 58.753906 128.835938 45.117188 112.019531 45.117188 C 95.203125 45.117188 81.566406 58.753906 81.566406 75.570313 C 81.566406 92.390625 95.203125 106.023438 112.019531 106.023438 "/>
<path style=" stroke:none;fill-rule:nonzero;fill:rgb(25.978088%,59.069824%,80.549622%);fill-opacity:1;" d="M 111.945313 105.917969 C 128.667969 105.917969 142.226563 92.359375 142.226563 75.636719 C 142.226563 58.910156 128.667969 45.351563 111.945313 45.351563 C 95.21875 45.351563 81.660156 58.910156 81.660156 75.636719 C 81.660156 92.359375 95.21875 105.917969 111.945313 105.917969 "/>
<path style=" stroke:none;fill-rule:nonzero;fill:rgb(26.368713%,59.284973%,80.653381%);fill-opacity:1;" d="M 111.867188 105.816406 C 128.5 105.816406 141.980469 92.332031 141.980469 75.703125 C 141.980469 59.070313 128.5 45.589844 111.867188 45.589844 C 95.238281 45.589844 81.757813 59.070313 81.757813 75.703125 C 81.757813 92.332031 95.238281 105.816406 111.867188 105.816406 "/>
<path style=" stroke:none;fill-rule:nonzero;fill:rgb(26.757813%,59.500122%,80.755615%);fill-opacity:1;" d="M 111.792969 105.710938 C 128.328125 105.710938 141.734375 92.304688 141.734375 75.765625 C 141.734375 59.230469 128.328125 45.824219 111.792969 45.824219 C 95.253906 45.824219 81.851563 59.230469 81.851563 75.765625 C 81.851563 92.304688 95.253906 105.710938 111.792969 105.710938 "/>
<path style=" stroke:none;fill-rule:nonzero;fill:rgb(27.148438%,59.716797%,80.857849%);fill-opacity:1;" d="M 111.71875 105.605469 C 128.160156 105.605469 141.492188 92.277344 141.492188 75.835938 C 141.492188 59.390625 128.160156 46.058594 111.71875 46.058594 C 95.273438 46.058594 81.945313 59.390625 81.945313 75.835938 C 81.945313 92.277344 95.273438 105.605469 111.71875 105.605469 "/>
<path style=" stroke:none;fill-rule:nonzero;fill:rgb(27.540588%,59.933472%,80.961609%);fill-opacity:1;" d="M 111.640625 105.5 C 127.992188 105.5 141.246094 92.25 141.246094 75.898438 C 141.246094 59.550781 127.992188 46.292969 111.640625 46.292969 C 95.292969 46.292969 82.039063 59.550781 82.039063 75.898438 C 82.039063 92.25 95.292969 105.5 111.640625 105.5 "/>
<path style=" stroke:none;fill-rule:nonzero;fill:rgb(27.735901%,60.041809%,81.011963%);fill-opacity:1;" d="M 111.566406 105.398438 C 127.824219 105.398438 141.003906 92.222656 141.003906 75.964844 C 141.003906 59.707031 127.824219 46.53125 111.566406 46.53125 C 95.308594 46.53125 82.132813 59.707031 82.132813 75.964844 C 82.132813 92.222656 95.308594 105.398438 111.566406 105.398438 "/>
<path style=" stroke:none;fill-rule:nonzero;fill:rgb(28.125%,60.256958%,81.114197%);fill-opacity:1;" d="M 111.492188 105.292969 C 127.652344 105.292969 140.757813 92.191406 140.757813 76.03125 C 140.757813 59.867188 127.652344 46.761719 111.492188 46.761719 C 95.328125 46.761719 82.226563 59.867188 82.226563 76.03125 C 82.226563 92.191406 95.328125 105.292969 111.492188 105.292969 "/>
<path style=" stroke:none;fill-rule:nonzero;fill:rgb(28.515625%,60.472107%,81.216431%);fill-opacity:1;" d="M 111.417969 105.191406 C 127.484375 105.191406 140.511719 92.164063 140.511719 76.097656 C 140.511719 60.027344 127.484375 46.996094 111.417969 46.996094 C 95.347656 46.996094 82.320313 60.027344 82.320313 76.097656 C 82.320313 92.164063 95.347656 105.191406 111.417969 105.191406 "/>
<path style=" stroke:none;fill-rule:nonzero;fill:rgb(28.90625%,60.688782%,81.32019%);fill-opacity:1;" d="M 111.339844 105.085938 C 127.316406 105.085938 140.269531 92.136719 140.269531 76.160156 C 140.269531 60.183594 127.316406 47.234375 111.339844 47.234375 C 95.367188 47.234375 82.414063 60.183594 82.414063 76.160156 C 82.414063 92.136719 95.367188 105.085938 111.339844 105.085938 "/>
<path style=" stroke:none;fill-rule:nonzero;fill:rgb(29.493713%,61.013794%,81.474304%);fill-opacity:1;" d="M 111.265625 104.984375 C 127.148438 104.984375 140.023438 92.109375 140.023438 76.226563 C 140.023438 60.34375 127.148438 47.46875 111.265625 47.46875 C 95.382813 47.46875 82.507813 60.34375 82.507813 76.226563 C 82.507813 92.109375 95.382813 104.984375 111.265625 104.984375 "/>
<path style=" stroke:none;fill-rule:nonzero;fill:rgb(29.882813%,61.228943%,81.576538%);fill-opacity:1;" d="M 111.191406 104.878906 C 126.980469 104.878906 139.777344 92.078125 139.777344 76.289063 C 139.777344 60.503906 126.980469 47.703125 111.191406 47.703125 C 95.402344 47.703125 82.601563 60.503906 82.601563 76.289063 C 82.601563 92.078125 95.402344 104.878906 111.191406 104.878906 "/>
<path style=" stroke:none;fill-rule:nonzero;fill:rgb(30.273438%,61.444092%,81.678772%);fill-opacity:1;" d="M 111.113281 104.773438 C 126.8125 104.773438 139.535156 92.054688 139.535156 76.355469 C 139.535156 60.660156 126.8125 47.9375 111.113281 47.9375 C 95.417969 47.9375 82.695313 60.660156 82.695313 76.355469 C 82.695313 92.054688 95.417969 104.773438 111.113281 104.773438 "/>
<path style=" stroke:none;fill-rule:nonzero;fill:rgb(30.665588%,61.660767%,81.782532%);fill-opacity:1;" d="M 111.039063 104.671875 C 126.640625 104.671875 139.289063 92.023438 139.289063 76.421875 C 139.289063 60.820313 126.640625 48.171875 111.039063 48.171875 C 95.4375 48.171875 82.789063 60.820313 82.789063 76.421875 C 82.789063 92.023438 95.4375 104.671875 111.039063 104.671875 "/>
<path style=" stroke:none;fill-rule:nonzero;fill:rgb(31.056213%,61.877441%,81.884766%);fill-opacity:1;" d="M 110.964844 104.566406 C 126.472656 104.566406 139.046875 91.996094 139.046875 76.488281 C 139.046875 60.980469 126.472656 48.410156 110.964844 48.410156 C 95.457031 48.410156 82.882813 60.980469 82.882813 76.488281 C 82.882813 91.996094 95.457031 104.566406 110.964844 104.566406 "/>
<path style=" stroke:none;fill-rule:nonzero;fill:rgb(31.445313%,62.09259%,81.987%);fill-opacity:1;" d="M 110.890625 104.464844 C 126.304688 104.464844 138.800781 91.96875 138.800781 76.554688 C 138.800781 61.140625 126.304688 48.640625 110.890625 48.640625 C 95.476563 48.640625 82.976563 61.140625 82.976563 76.554688 C 82.976563 91.96875 95.476563 104.464844 110.890625 104.464844 "/>
<path style=" stroke:none;fill-rule:nonzero;fill:rgb(31.835938%,62.309265%,82.089233%);fill-opacity:1;" d="M 110.8125 104.359375 C 126.136719 104.359375 138.554688 91.941406 138.554688 76.617188 C 138.554688 61.300781 126.136719 48.878906 110.8125 48.878906 C 95.492188 48.878906 83.074219 61.300781 83.074219 76.617188 C 83.074219 91.941406 95.492188 104.359375 110.8125 104.359375 "/>
<path style=" stroke:none;fill-rule:nonzero;fill:rgb(32.228088%,62.52594%,82.192993%);fill-opacity:1;" d="M 110.738281 104.257813 C 125.964844 104.257813 138.308594 91.910156 138.308594 76.683594 C 138.308594 61.457031 125.964844 49.113281 110.738281 49.113281 C 95.511719 49.113281 83.164063 61.457031 83.164063 76.683594 C 83.164063 91.910156 95.511719 104.257813 110.738281 104.257813 "/>
<path style=" stroke:none;fill-rule:nonzero;fill:rgb(32.618713%,62.741089%,82.295227%);fill-opacity:1;" d="M 110.664063 104.152344 C 125.796875 104.152344 138.066406 91.886719 138.066406 76.75 C 138.066406 61.617188 125.796875 49.347656 110.664063 49.347656 C 95.527344 49.347656 83.261719 61.617188 83.261719 76.75 C 83.261719 91.886719 95.527344 104.152344 110.664063 104.152344 "/>
<path style=" stroke:none;fill-rule:nonzero;fill:rgb(32.8125%,62.8479%,82.345581%);fill-opacity:1;" d="M 110.585938 104.050781 C 125.628906 104.050781 137.820313 91.855469 137.820313 76.816406 C 137.820313 61.777344 125.628906 49.582031 110.585938 49.582031 C 95.546875 49.582031 83.355469 61.777344 83.355469 76.816406 C 83.355469 91.855469 95.546875 104.050781 110.585938 104.050781 "/>
<path style=" stroke:none;fill-rule:nonzero;fill:rgb(33.203125%,63.064575%,82.449341%);fill-opacity:1;" d="M 110.511719 103.945313 C 125.460938 103.945313 137.578125 91.828125 137.578125 76.882813 C 137.578125 61.933594 125.460938 49.816406 110.511719 49.816406 C 95.566406 49.816406 83.449219 61.933594 83.449219 76.882813 C 83.449219 91.828125 95.566406 103.945313 110.511719 103.945313 "/>
<path style=" stroke:none;fill-rule:nonzero;fill:rgb(33.790588%,63.389587%,82.603455%);fill-opacity:1;" d="M 110.4375 103.84375 C 125.289063 103.84375 137.332031 91.800781 137.332031 76.945313 C 137.332031 62.09375 125.289063 50.050781 110.4375 50.050781 C 95.585938 50.050781 83.542969 62.09375 83.542969 76.945313 C 83.542969 91.800781 95.585938 103.84375 110.4375 103.84375 "/>
<path style=" stroke:none;fill-rule:nonzero;fill:rgb(34.181213%,63.604736%,82.705688%);fill-opacity:1;" d="M 110.359375 103.738281 C 125.121094 103.738281 137.085938 91.773438 137.085938 77.011719 C 137.085938 62.253906 125.121094 50.285156 110.359375 50.285156 C 95.601563 50.285156 83.636719 62.253906 83.636719 77.011719 C 83.636719 91.773438 95.601563 103.738281 110.359375 103.738281 "/>
<path style=" stroke:none;fill-rule:nonzero;fill:rgb(34.570313%,63.819885%,82.807922%);fill-opacity:1;" d="M 110.285156 103.632813 C 124.953125 103.632813 136.84375 91.742188 136.84375 77.078125 C 136.84375 62.410156 124.953125 50.523438 110.285156 50.523438 C 95.621094 50.523438 83.730469 62.410156 83.730469 77.078125 C 83.730469 91.742188 95.621094 103.632813 110.285156 103.632813 "/>
<path style=" stroke:none;fill-rule:nonzero;fill:rgb(34.960938%,64.03656%,82.910156%);fill-opacity:1;" d="M 110.210938 103.53125 C 124.785156 103.53125 136.597656 91.714844 136.597656 77.140625 C 136.597656 62.570313 124.785156 50.757813 110.210938 50.757813 C 95.636719 50.757813 83.824219 62.570313 83.824219 77.140625 C 83.824219 91.714844 95.636719 103.53125 110.210938 103.53125 "/>
<path style=" stroke:none;fill-rule:nonzero;fill:rgb(35.353088%,64.253235%,83.013916%);fill-opacity:1;" d="M 110.136719 103.425781 C 124.613281 103.425781 136.351563 91.6875 136.351563 77.207031 C 136.351563 62.730469 124.613281 50.992188 110.136719 50.992188 C 95.65625 50.992188 83.917969 62.730469 83.917969 77.207031 C 83.917969 91.6875 95.65625 103.425781 110.136719 103.425781 "/>
<path style=" stroke:none;fill-rule:nonzero;fill:rgb(35.743713%,64.46991%,83.11615%);fill-opacity:1;" d="M 110.0625 103.320313 C 124.445313 103.320313 136.109375 91.660156 136.109375 77.273438 C 136.109375 62.890625 124.445313 51.226563 110.0625 51.226563 C 95.671875 51.226563 84.011719 62.890625 84.011719 77.273438 C 84.011719 91.660156 95.671875 103.320313 110.0625 103.320313 "/>
<path style=" stroke:none;fill-rule:nonzero;fill:rgb(36.132813%,64.685059%,83.218384%);fill-opacity:1;" d="M 109.984375 103.21875 C 124.277344 103.21875 135.863281 91.632813 135.863281 77.339844 C 135.863281 63.050781 124.277344 51.460938 109.984375 51.460938 C 95.691406 51.460938 84.105469 63.050781 84.105469 77.339844 C 84.105469 91.632813 95.691406 103.21875 109.984375 103.21875 "/>
<path style=" stroke:none;fill-rule:nonzero;fill:rgb(36.523438%,64.900208%,83.320618%);fill-opacity:1;" d="M 109.910156 103.113281 C 124.109375 103.113281 135.617188 91.601563 135.617188 77.40625 C 135.617188 63.207031 124.109375 51.695313 109.910156 51.695313 C 95.710938 51.695313 84.203125 63.207031 84.203125 77.40625 C 84.203125 91.601563 95.710938 103.113281 109.910156 103.113281 "/>
<path style=" stroke:none;fill-rule:nonzero;fill:rgb(36.915588%,65.116882%,83.424377%);fill-opacity:1;" d="M 109.835938 103.011719 C 123.9375 103.011719 135.375 91.574219 135.375 77.472656 C 135.375 63.367188 123.9375 51.929688 109.835938 51.929688 C 95.730469 51.929688 84.292969 63.367188 84.292969 77.472656 C 84.292969 91.574219 95.730469 103.011719 109.835938 103.011719 "/>
<path style=" stroke:none;fill-rule:nonzero;fill:rgb(37.306213%,65.333557%,83.526611%);fill-opacity:1;" d="M 109.757813 102.90625 C 123.769531 102.90625 135.128906 91.546875 135.128906 77.535156 C 135.128906 63.523438 123.769531 52.164063 109.757813 52.164063 C 95.746094 52.164063 84.386719 63.523438 84.386719 77.535156 C 84.386719 91.546875 95.746094 102.90625 109.757813 102.90625 "/>
<path style=" stroke:none;fill-rule:nonzero;fill:rgb(37.695313%,65.548706%,83.628845%);fill-opacity:1;" d="M 109.683594 102.804688 C 123.601563 102.804688 134.882813 91.519531 134.882813 77.601563 C 134.882813 63.683594 123.601563 52.402344 109.683594 52.402344 C 95.765625 52.402344 84.484375 63.683594 84.484375 77.601563 C 84.484375 91.519531 95.765625 102.804688 109.683594 102.804688 "/>
<path style=" stroke:none;fill-rule:nonzero;fill:rgb(38.085938%,65.763855%,83.731079%);fill-opacity:1;" d="M 109.609375 102.699219 C 123.433594 102.699219 134.640625 91.492188 134.640625 77.667969 C 134.640625 63.84375 123.433594 52.636719 109.609375 52.636719 C 95.78125 52.636719 84.578125 63.84375 84.578125 77.667969 C 84.578125 91.492188 95.78125 102.699219 109.609375 102.699219 "/>
<path style=" stroke:none;fill-rule:nonzero;fill:rgb(38.478088%,65.98053%,83.834839%);fill-opacity:1;" d="M 109.53125 102.59375 C 123.261719 102.59375 134.394531 91.464844 134.394531 77.734375 C 134.394531 64.003906 123.261719 52.871094 109.53125 52.871094 C 95.800781 52.871094 84.671875 64.003906 84.671875 77.734375 C 84.671875 91.464844 95.800781 102.59375 109.53125 102.59375 "/>
<path style=" stroke:none;fill-rule:nonzero;fill:rgb(38.868713%,66.197205%,83.937073%);fill-opacity:1;" d="M 109.457031 102.488281 C 123.09375 102.488281 134.152344 91.433594 134.152344 77.796875 C 134.152344 64.160156 123.09375 53.105469 109.457031 53.105469 C 95.820313 53.105469 84.765625 64.160156 84.765625 77.796875 C 84.765625 91.433594 95.820313 102.488281 109.457031 102.488281 "/>
<path style=" stroke:none;fill-rule:nonzero;fill:rgb(39.257813%,66.412354%,84.039307%);fill-opacity:1;" d="M 109.382813 102.386719 C 122.925781 102.386719 133.90625 91.40625 133.90625 77.863281 C 133.90625 64.320313 122.925781 53.339844 109.382813 53.339844 C 95.839844 53.339844 84.859375 64.320313 84.859375 77.863281 C 84.859375 91.40625 95.839844 102.386719 109.382813 102.386719 "/>
<path style=" stroke:none;fill-rule:nonzero;fill:rgb(39.648438%,66.629028%,84.141541%);fill-opacity:1;" d="M 109.304688 102.285156 C 122.757813 102.285156 133.660156 91.378906 133.660156 77.929688 C 133.660156 64.476563 122.757813 53.574219 109.304688 53.574219 C 95.855469 53.574219 84.953125 64.476563 84.953125 77.929688 C 84.953125 91.378906 95.855469 102.285156 109.304688 102.285156 "/>
<path style=" stroke:none;fill-rule:nonzero;fill:rgb(40.040588%,66.845703%,84.2453%);fill-opacity:1;" d="M 109.230469 102.179688 C 122.589844 102.179688 133.414063 91.351563 133.414063 77.992188 C 133.414063 64.636719 122.589844 53.808594 109.230469 53.808594 C 95.875 53.808594 85.046875 64.636719 85.046875 77.992188 C 85.046875 91.351563 95.875 102.179688 109.230469 102.179688 "/>
<path style=" stroke:none;fill-rule:nonzero;fill:rgb(40.431213%,67.060852%,84.347534%);fill-opacity:1;" d="M 109.15625 102.074219 C 122.421875 102.074219 133.171875 91.324219 133.171875 78.058594 C 133.171875 64.796875 122.421875 54.046875 109.15625 54.046875 C 95.894531 54.046875 85.140625 64.796875 85.140625 78.058594 C 85.140625 91.324219 95.894531 102.074219 109.15625 102.074219 "/>
<path style=" stroke:none;fill-rule:nonzero;fill:rgb(40.820313%,67.276001%,84.449768%);fill-opacity:1;" d="M 109.082031 101.972656 C 122.25 101.972656 132.925781 91.296875 132.925781 78.125 C 132.925781 64.957031 122.25 54.28125 109.082031 54.28125 C 95.910156 54.28125 85.234375 64.957031 85.234375 78.125 C 85.234375 91.296875 95.910156 101.972656 109.082031 101.972656 "/>
<path style=" stroke:none;fill-rule:nonzero;fill:rgb(41.210938%,67.492676%,84.552002%);fill-opacity:1;" d="M 109.003906 101.867188 C 122.082031 101.867188 132.683594 91.265625 132.683594 78.191406 C 132.683594 65.117188 122.082031 54.515625 109.003906 54.515625 C 95.929688 54.515625 85.332031 65.117188 85.332031 78.191406 C 85.332031 91.265625 95.929688 101.867188 109.003906 101.867188 "/>
<path style=" stroke:none;fill-rule:nonzero;fill:rgb(41.603088%,67.709351%,84.655762%);fill-opacity:1;" d="M 108.929688 101.765625 C 121.910156 101.765625 132.4375 91.238281 132.4375 78.257813 C 132.4375 65.273438 121.910156 54.75 108.929688 54.75 C 95.949219 54.75 85.421875 65.273438 85.421875 78.257813 C 85.421875 91.238281 95.949219 101.765625 108.929688 101.765625 "/>
<path style=" stroke:none;fill-rule:nonzero;fill:rgb(41.993713%,67.9245%,84.757996%);fill-opacity:1;" d="M 108.855469 101.660156 C 121.742188 101.660156 132.191406 91.210938 132.191406 78.324219 C 132.191406 65.433594 121.742188 54.984375 108.855469 54.984375 C 95.96875 54.984375 85.515625 65.433594 85.515625 78.324219 C 85.515625 91.210938 95.96875 101.660156 108.855469 101.660156 "/>
<path style=" stroke:none;fill-rule:nonzero;fill:rgb(42.382813%,68.139648%,84.860229%);fill-opacity:1;" d="M 108.78125 101.558594 C 121.574219 101.558594 131.949219 91.183594 131.949219 78.386719 C 131.949219 65.59375 121.574219 55.21875 108.78125 55.21875 C 95.984375 55.21875 85.609375 65.59375 85.609375 78.386719 C 85.609375 91.183594 95.984375 101.558594 108.78125 101.558594 "/>
<path style=" stroke:none;fill-rule:nonzero;fill:rgb(42.773438%,68.356323%,84.963989%);fill-opacity:1;" d="M 108.703125 101.449219 C 121.40625 101.449219 131.703125 91.15625 131.703125 78.453125 C 131.703125 65.75 121.40625 55.453125 108.703125 55.453125 C 96.003906 55.453125 85.707031 65.75 85.707031 78.453125 C 85.707031 91.15625 96.003906 101.449219 108.703125 101.449219 "/>
<path style=" stroke:none;fill-rule:nonzero;fill:rgb(43.165588%,68.572998%,85.066223%);fill-opacity:1;" d="M 108.628906 101.347656 C 121.234375 101.347656 131.457031 91.128906 131.457031 78.519531 C 131.457031 65.910156 121.234375 55.691406 108.628906 55.691406 C 96.023438 55.691406 85.800781 65.910156 85.800781 78.519531 C 85.800781 91.128906 96.023438 101.347656 108.628906 101.347656 "/>
<path style=" stroke:none;fill-rule:nonzero;fill:rgb(43.556213%,68.789673%,85.168457%);fill-opacity:1;" d="M 108.554688 101.242188 C 121.066406 101.242188 131.214844 91.101563 131.214844 78.585938 C 131.214844 66.070313 121.066406 55.925781 108.554688 55.925781 C 96.039063 55.925781 85.894531 66.070313 85.894531 78.585938 C 85.894531 91.101563 96.039063 101.242188 108.554688 101.242188 "/>
<path style=" stroke:none;fill-rule:nonzero;fill:rgb(43.945313%,69.004822%,85.270691%);fill-opacity:1;" d="M 108.476563 101.140625 C 120.898438 101.140625 130.96875 91.070313 130.96875 78.652344 C 130.96875 66.226563 120.898438 56.160156 108.476563 56.160156 C 96.058594 56.160156 85.988281 66.226563 85.988281 78.652344 C 85.988281 91.070313 96.058594 101.140625 108.476563 101.140625 "/>
<path style=" stroke:none;fill-rule:nonzero;fill:rgb(44.335938%,69.219971%,85.374451%);fill-opacity:1;" d="M 108.402344 101.035156 C 120.730469 101.035156 130.726563 91.042969 130.726563 78.71875 C 130.726563 66.386719 120.730469 56.394531 108.402344 56.394531 C 96.078125 56.394531 86.082031 66.386719 86.082031 78.71875 C 86.082031 91.042969 96.078125 101.035156 108.402344 101.035156 "/>
<path style=" stroke:none;fill-rule:nonzero;fill:rgb(44.728088%,69.436646%,85.476685%);fill-opacity:1;" d="M 108.328125 100.933594 C 120.5625 100.933594 130.480469 91.015625 130.480469 78.78125 C 130.480469 66.546875 120.5625 56.628906 108.328125 56.628906 C 96.09375 56.628906 86.175781 66.546875 86.175781 78.78125 C 86.175781 91.015625 96.09375 100.933594 108.328125 100.933594 "/>
<path style=" stroke:none;fill-rule:nonzero;fill:rgb(45.118713%,69.65332%,85.578918%);fill-opacity:1;" d="M 108.253906 100.828125 C 120.394531 100.828125 130.234375 90.988281 130.234375 78.847656 C 130.234375 66.707031 120.394531 56.863281 108.253906 56.863281 C 96.113281 56.863281 86.269531 66.707031 86.269531 78.847656 C 86.269531 90.988281 96.113281 100.828125 108.253906 100.828125 "/>
<path style=" stroke:none;fill-rule:nonzero;fill:rgb(45.507813%,69.868469%,85.681152%);fill-opacity:1;" d="M 108.179688 100.726563 C 120.222656 100.726563 129.988281 90.960938 129.988281 78.910156 C 129.988281 66.863281 120.222656 57.097656 108.179688 57.097656 C 96.128906 57.097656 86.363281 66.863281 86.363281 78.910156 C 86.363281 90.960938 96.128906 100.726563 108.179688 100.726563 "/>
<path style=" stroke:none;fill-rule:nonzero;fill:rgb(45.898438%,70.083618%,85.784912%);fill-opacity:1;" d="M 108.101563 100.621094 C 120.054688 100.621094 129.746094 90.933594 129.746094 78.976563 C 129.746094 67.023438 120.054688 57.332031 108.101563 57.332031 C 96.148438 57.332031 86.457031 67.023438 86.457031 78.976563 C 86.457031 90.933594 96.148438 100.621094 108.101563 100.621094 "/>
<path style=" stroke:none;fill-rule:nonzero;fill:rgb(46.290588%,70.301819%,85.887146%);fill-opacity:1;" d="M 108.027344 100.515625 C 119.886719 100.515625 129.5 90.902344 129.5 79.042969 C 129.5 67.183594 119.886719 57.566406 108.027344 57.566406 C 96.164063 57.566406 86.550781 67.183594 86.550781 79.042969 C 86.550781 90.902344 96.164063 100.515625 108.027344 100.515625 "/>
<path style=" stroke:none;fill-rule:nonzero;fill:rgb(46.681213%,70.516968%,85.98938%);fill-opacity:1;" d="M 107.949219 100.414063 C 119.71875 100.414063 129.253906 90.875 129.253906 79.109375 C 129.253906 67.34375 119.71875 57.804688 107.949219 57.804688 C 96.183594 57.804688 86.644531 67.34375 86.644531 79.109375 C 86.644531 90.875 96.183594 100.414063 107.949219 100.414063 "/>
<path style=" stroke:none;fill-rule:nonzero;fill:rgb(47.070313%,70.732117%,86.091614%);fill-opacity:1;" d="M 107.875 100.308594 C 119.546875 100.308594 129.011719 90.847656 129.011719 79.175781 C 129.011719 67.5 119.546875 58.035156 107.875 58.035156 C 96.203125 58.035156 86.738281 67.5 86.738281 79.175781 C 86.738281 90.847656 96.203125 100.308594 107.875 100.308594 "/>
<path style=" stroke:none;fill-rule:nonzero;fill:rgb(47.460938%,70.948792%,86.195374%);fill-opacity:1;" d="M 107.800781 100.207031 C 119.378906 100.207031 128.765625 90.820313 128.765625 79.238281 C 128.765625 67.660156 119.378906 58.273438 107.800781 58.273438 C 96.222656 58.273438 86.835938 67.660156 86.835938 79.238281 C 86.835938 90.820313 96.222656 100.207031 107.800781 100.207031 "/>
<path style=" stroke:none;fill-rule:nonzero;fill:rgb(47.853088%,71.165466%,86.297607%);fill-opacity:1;" d="M 107.726563 100.101563 C 119.210938 100.101563 128.523438 90.792969 128.523438 79.304688 C 128.523438 67.820313 119.210938 58.507813 107.726563 58.507813 C 96.238281 58.507813 86.925781 67.820313 86.925781 79.304688 C 86.925781 90.792969 96.238281 100.101563 107.726563 100.101563 "/>
<path style=" stroke:none;fill-rule:nonzero;fill:rgb(48.243713%,71.380615%,86.399841%);fill-opacity:1;" d="M 107.648438 99.996094 C 119.042969 99.996094 128.277344 90.765625 128.277344 79.367188 C 128.277344 67.976563 119.042969 58.742188 107.648438 58.742188 C 96.257813 58.742188 87.023438 67.976563 87.023438 79.367188 C 87.023438 90.765625 96.257813 99.996094 107.648438 99.996094 "/>
<path style=" stroke:none;fill-rule:nonzero;fill:rgb(48.632813%,71.595764%,86.502075%);fill-opacity:1;" d="M 107.574219 99.894531 C 118.871094 99.894531 128.03125 90.734375 128.03125 79.433594 C 128.03125 68.136719 118.871094 58.976563 107.574219 58.976563 C 96.273438 58.976563 87.113281 68.136719 87.113281 79.433594 C 87.113281 90.734375 96.273438 99.894531 107.574219 99.894531 "/>
<path style=" stroke:none;fill-rule:nonzero;fill:rgb(49.023438%,71.812439%,86.605835%);fill-opacity:1;" d="M 107.5 99.789063 C 118.703125 99.789063 127.789063 90.707031 127.789063 79.5 C 127.789063 68.296875 118.703125 59.210938 107.5 59.210938 C 96.292969 59.210938 87.210938 68.296875 87.210938 79.5 C 87.210938 90.707031 96.292969 99.789063 107.5 99.789063 "/>
<path style=" stroke:none;fill-rule:nonzero;fill:rgb(49.415588%,72.029114%,86.708069%);fill-opacity:1;" d="M 107.421875 99.6875 C 118.535156 99.6875 127.542969 90.679688 127.542969 79.566406 C 127.542969 68.457031 118.535156 59.445313 107.421875 59.445313 C 96.3125 59.445313 87.304688 68.457031 87.304688 79.566406 C 87.304688 90.679688 96.3125 99.6875 107.421875 99.6875 "/>
<path style=" stroke:none;fill-rule:nonzero;fill:rgb(49.806213%,72.245789%,86.811829%);fill-opacity:1;" d="M 107.347656 99.582031 C 118.367188 99.582031 127.300781 90.652344 127.300781 79.632813 C 127.300781 68.613281 118.367188 59.683594 107.347656 59.683594 C 96.332031 59.683594 87.398438 68.613281 87.398438 79.632813 C 87.398438 90.652344 96.332031 99.582031 107.347656 99.582031 "/>
<path style=" stroke:none;fill-rule:nonzero;fill:rgb(50.195313%,72.460938%,86.914063%);fill-opacity:1;" d="M 107.273438 99.480469 C 118.195313 99.480469 127.054688 90.625 127.054688 79.699219 C 127.054688 68.773438 118.195313 59.917969 107.273438 59.917969 C 96.347656 59.917969 87.492188 68.773438 87.492188 79.699219 C 87.492188 90.625 96.347656 99.480469 107.273438 99.480469 "/>
<path style=" stroke:none;fill-rule:nonzero;fill:rgb(50.611877%,72.689819%,87.0224%);fill-opacity:1;" d="M 107.195313 99.375 C 118.027344 99.375 126.808594 90.597656 126.808594 79.765625 C 126.808594 68.933594 118.027344 60.152344 107.195313 60.152344 C 96.367188 60.152344 87.585938 68.933594 87.585938 79.765625 C 87.585938 90.597656 96.367188 99.375 107.195313 99.375 "/>
<path style=" stroke:none;fill-rule:nonzero;fill:rgb(51.002502%,72.906494%,87.124634%);fill-opacity:1;" d="M 107.121094 99.269531 C 117.859375 99.269531 126.566406 90.566406 126.566406 79.828125 C 126.566406 69.089844 117.859375 60.386719 107.121094 60.386719 C 96.382813 60.386719 87.679688 69.089844 87.679688 79.828125 C 87.679688 90.566406 96.382813 99.269531 107.121094 99.269531 "/>
<path style=" stroke:none;fill-rule:nonzero;fill:rgb(51.391602%,73.121643%,87.226868%);fill-opacity:1;" d="M 107.046875 99.167969 C 117.691406 99.167969 126.320313 90.539063 126.320313 79.894531 C 126.320313 69.25 117.691406 60.621094 107.046875 60.621094 C 96.402344 60.621094 87.773438 69.25 87.773438 79.894531 C 87.773438 90.539063 96.402344 99.167969 107.046875 99.167969 "/>
<path style=" stroke:none;fill-rule:nonzero;fill:rgb(51.806641%,73.350525%,87.336731%);fill-opacity:1;" d="M 106.972656 99.0625 C 117.519531 99.0625 126.074219 90.511719 126.074219 79.960938 C 126.074219 69.410156 117.519531 60.855469 106.972656 60.855469 C 96.421875 60.855469 87.867188 69.410156 87.867188 79.960938 C 87.867188 90.511719 96.421875 99.0625 106.972656 99.0625 "/>
<path style=" stroke:none;fill-rule:nonzero;fill:rgb(52.198792%,73.568726%,87.438965%);fill-opacity:1;" d="M 106.898438 98.960938 C 117.351563 98.960938 125.828125 90.484375 125.828125 80.023438 C 125.828125 69.570313 117.351563 61.089844 106.898438 61.089844 C 96.4375 61.089844 87.960938 69.570313 87.960938 80.023438 C 87.960938 90.484375 96.4375 98.960938 106.898438 98.960938 "/>
<path style=" stroke:none;fill-rule:nonzero;fill:rgb(52.490234%,73.728943%,87.516785%);fill-opacity:1;" d="M 106.820313 98.855469 C 117.183594 98.855469 125.585938 90.453125 125.585938 80.089844 C 125.585938 69.726563 117.183594 61.324219 106.820313 61.324219 C 96.457031 61.324219 88.058594 69.726563 88.058594 80.089844 C 88.058594 90.453125 96.457031 98.855469 106.820313 98.855469 "/>
<path style=" stroke:none;fill-rule:nonzero;fill:rgb(52.906799%,73.959351%,87.625122%);fill-opacity:1;" d="M 106.746094 98.75 C 117.015625 98.75 125.339844 90.425781 125.339844 80.15625 C 125.339844 69.886719 117.015625 61.558594 106.746094 61.558594 C 96.476563 61.558594 88.148438 69.886719 88.148438 80.15625 C 88.148438 90.425781 96.476563 98.75 106.746094 98.75 "/>
<path style=" stroke:none;fill-rule:nonzero;fill:rgb(53.297424%,74.176025%,87.728882%);fill-opacity:1;" d="M 106.671875 98.648438 C 116.847656 98.648438 125.097656 90.398438 125.097656 80.222656 C 125.097656 70.046875 116.847656 61.796875 106.671875 61.796875 C 96.492188 61.796875 88.242188 70.046875 88.242188 80.222656 C 88.242188 90.398438 96.492188 98.648438 106.671875 98.648438 "/>
<path style=" stroke:none;fill-rule:nonzero;fill:rgb(53.710938%,74.403381%,87.837219%);fill-opacity:1;" d="M 106.59375 98.542969 C 116.679688 98.542969 124.851563 90.367188 124.851563 80.285156 C 124.851563 70.203125 116.679688 62.03125 106.59375 62.03125 C 96.511719 62.03125 88.339844 70.203125 88.339844 80.285156 C 88.339844 90.367188 96.511719 98.542969 106.59375 98.542969 "/>
<path style=" stroke:none;fill-rule:nonzero;fill:rgb(54.103088%,74.621582%,87.939453%);fill-opacity:1;" d="M 106.519531 98.441406 C 116.507813 98.441406 124.605469 90.34375 124.605469 80.351563 C 124.605469 70.363281 116.507813 62.265625 106.519531 62.265625 C 96.53125 62.265625 88.433594 70.363281 88.433594 80.351563 C 88.433594 90.34375 96.53125 98.441406 106.519531 98.441406 "/>
<path style=" stroke:none;fill-rule:nonzero;fill:rgb(54.493713%,74.836731%,88.043213%);fill-opacity:1;" d="M 106.445313 98.335938 C 116.339844 98.335938 124.363281 90.316406 124.363281 80.417969 C 124.363281 70.523438 116.339844 62.5 106.445313 62.5 C 96.546875 62.5 88.527344 70.523438 88.527344 80.417969 C 88.527344 90.316406 96.546875 98.335938 106.445313 98.335938 "/>
<path style=" stroke:none;fill-rule:nonzero;fill:rgb(54.907227%,75.065613%,88.15155%);fill-opacity:1;" d="M 106.367188 98.234375 C 116.171875 98.234375 124.117188 90.285156 124.117188 80.484375 C 124.117188 70.683594 116.171875 62.734375 106.367188 62.734375 C 96.566406 62.734375 88.621094 70.683594 88.621094 80.484375 C 88.621094 90.285156 96.566406 98.234375 106.367188 98.234375 "/>
<path style=" stroke:none;fill-rule:nonzero;fill:rgb(55.299377%,75.282288%,88.253784%);fill-opacity:1;" d="M 106.292969 98.128906 C 116.003906 98.128906 123.871094 90.261719 123.871094 80.550781 C 123.871094 70.839844 116.003906 62.972656 106.292969 62.972656 C 96.585938 62.972656 88.714844 70.839844 88.714844 80.550781 C 88.714844 90.261719 96.585938 98.128906 106.292969 98.128906 "/>
<path style=" stroke:none;fill-rule:nonzero;fill:rgb(55.690002%,75.498962%,88.357544%);fill-opacity:1;" d="M 106.21875 98.023438 C 115.832031 98.023438 123.628906 90.230469 123.628906 80.617188 C 123.628906 71 115.832031 63.207031 106.21875 63.207031 C 96.605469 63.207031 88.808594 71 88.808594 80.617188 C 88.808594 90.230469 96.605469 98.023438 106.21875 98.023438 "/>
<path style=" stroke:none;fill-rule:nonzero;fill:rgb(56.103516%,75.726318%,88.465881%);fill-opacity:1;" d="M 106.144531 97.921875 C 115.664063 97.921875 123.382813 90.203125 123.382813 80.679688 C 123.382813 71.160156 115.664063 63.441406 106.144531 63.441406 C 96.621094 63.441406 88.902344 71.160156 88.902344 80.679688 C 88.902344 90.203125 96.621094 97.921875 106.144531 97.921875 "/>
<path style=" stroke:none;fill-rule:nonzero;fill:rgb(56.494141%,75.942993%,88.568115%);fill-opacity:1;" d="M 106.066406 97.816406 C 115.496094 97.816406 123.140625 90.175781 123.140625 80.746094 C 123.140625 71.316406 115.496094 63.675781 106.066406 63.675781 C 96.640625 63.675781 88.996094 71.316406 88.996094 80.746094 C 88.996094 90.175781 96.640625 97.816406 106.066406 97.816406 "/>
<path style=" stroke:none;fill-rule:nonzero;fill:rgb(56.910706%,76.173401%,88.677979%);fill-opacity:1;" d="M 105.992188 97.714844 C 115.328125 97.714844 122.894531 90.144531 122.894531 80.808594 C 122.894531 71.476563 115.328125 63.910156 105.992188 63.910156 C 96.65625 63.910156 89.089844 71.476563 89.089844 80.808594 C 89.089844 90.144531 96.65625 97.714844 105.992188 97.714844 "/>
<path style=" stroke:none;fill-rule:nonzero;fill:rgb(57.299805%,76.38855%,88.780212%);fill-opacity:1;" d="M 105.914063 97.609375 C 115.160156 97.609375 122.648438 90.117188 122.648438 80.875 C 122.648438 71.636719 115.160156 64.144531 105.914063 64.144531 C 96.675781 64.144531 89.183594 71.636719 89.183594 80.875 C 89.183594 90.117188 96.675781 97.609375 105.914063 97.609375 "/>
<path style=" stroke:none;fill-rule:nonzero;fill:rgb(57.69043%,76.605225%,88.882446%);fill-opacity:1;" d="M 105.839844 97.507813 C 114.988281 97.507813 122.402344 90.089844 122.402344 80.941406 C 122.402344 71.796875 114.988281 64.378906 105.839844 64.378906 C 96.695313 64.378906 89.277344 71.796875 89.277344 80.941406 C 89.277344 90.089844 96.695313 97.507813 105.839844 97.507813 "/>
<path style=" stroke:none;fill-rule:nonzero;fill:rgb(58.007813%,76.780701%,88.96637%);fill-opacity:1;" d="M 105.765625 97.402344 C 114.820313 97.402344 122.160156 90.0625 122.160156 81.007813 C 122.160156 71.953125 114.820313 64.613281 105.765625 64.613281 C 96.714844 64.613281 89.371094 71.953125 89.371094 81.007813 C 89.371094 90.0625 96.714844 97.402344 105.765625 97.402344 "/>
<path style=" stroke:none;fill-rule:nonzero;fill:rgb(58.398438%,76.99585%,89.068604%);fill-opacity:1;" d="M 105.691406 97.296875 C 114.652344 97.296875 121.914063 90.035156 121.914063 81.074219 C 121.914063 72.113281 114.652344 64.851563 105.691406 64.851563 C 96.730469 64.851563 89.46875 72.113281 89.46875 81.074219 C 89.46875 90.035156 96.730469 97.296875 105.691406 97.296875 "/>
<path style=" stroke:none;fill-rule:nonzero;fill:rgb(58.790588%,77.212524%,89.172363%);fill-opacity:1;" d="M 105.617188 97.195313 C 114.484375 97.195313 121.671875 90.007813 121.671875 81.140625 C 121.671875 72.273438 114.484375 65.085938 105.617188 65.085938 C 96.746094 65.085938 89.558594 72.273438 89.558594 81.140625 C 89.558594 90.007813 96.746094 97.195313 105.617188 97.195313 "/>
<path style=" stroke:none;fill-rule:nonzero;fill:rgb(59.204102%,77.441406%,89.280701%);fill-opacity:1;" d="M 105.539063 97.089844 C 114.3125 97.089844 121.425781 89.976563 121.425781 81.203125 C 121.425781 72.433594 114.3125 65.320313 105.539063 65.320313 C 96.765625 65.320313 89.652344 72.433594 89.652344 81.203125 C 89.652344 89.976563 96.765625 97.089844 105.539063 97.089844 "/>
<path style=" stroke:none;fill-rule:nonzero;fill:rgb(59.594727%,77.658081%,89.382935%);fill-opacity:1;" d="M 105.464844 96.988281 C 114.144531 96.988281 121.179688 89.949219 121.179688 81.269531 C 121.179688 72.589844 114.144531 65.554688 105.464844 65.554688 C 96.785156 65.554688 89.75 72.589844 89.75 81.269531 C 89.75 89.949219 96.785156 96.988281 105.464844 96.988281 "/>
<path style=" stroke:none;fill-rule:nonzero;fill:rgb(60.011292%,77.888489%,89.492798%);fill-opacity:1;" d="M 105.390625 65.785156 C 96.804688 65.785156 89.84375 72.75 89.84375 81.335938 C 89.84375 89.921875 96.804688 96.882813 105.390625 96.882813 C 113.976563 96.882813 120.9375 89.921875 120.9375 81.335938 C 120.9375 72.75 113.976563 65.785156 105.390625 65.785156 "/>
<path style=" stroke:none;fill-rule:nonzero;fill:rgb(100%,100%,100%);fill-opacity:1;" d="M 113.007813 70.710938 L 117.105469 70.394531 C 117.105469 70.394531 115.535156 72.285156 117.421875 72.601563 "/>
<path style=" stroke:none;fill-rule:nonzero;fill:rgb(100%,100%,100%);fill-opacity:1;" d="M 123.089844 31.324219 C 123.089844 31.324219 121.519531 33.21875 123.40625 33.535156 C 125.296875 33.851563 128.445313 33.21875 128.445313 33.21875 C 128.445313 33.21875 129.699219 32.910156 132.542969 33.851563 C 135.382813 34.789063 138.535156 36.371094 138.535156 36.371094 L 133.488281 37.632813 L 129.707031 38.894531 L 124.347656 38.578125 L 122.773438 36.371094 L 119.625 34.160156 L 118.992188 31.640625 "/>
<path style=" stroke:none;fill-rule:nonzero;fill:rgb(100%,100%,100%);fill-opacity:1;" d="M 86.96875 100.054688 L 90.855469 99.617188 L 94.957031 98.035156 L 97.480469 99.300781 C 97.480469 99.300781 100.636719 99.300781 101.261719 101.195313 C 101.886719 103.089844 104.414063 104.347656 104.414063 104.347656 L 108.511719 106.871094 L 105.671875 107.816406 L 103.148438 108.765625 L 95.359375 106.816406 C 95.359375 106.816406 89.347656 102.765625 86.96875 100.054688 "/>
<path style=" stroke:none;fill-rule:nonzero;fill:rgb(100%,100%,100%);fill-opacity:1;" d="M 134.792969 49.128906 C 134.792969 49.128906 133.613281 52.066406 135.304688 51.902344 C 136.996094 51.734375 138.042969 50.398438 138.042969 50.398438 L 140.515625 49.800781 L 137.050781 48.140625 "/>
<path style=" stroke:none;fill-rule:nonzero;fill:rgb(100%,100%,100%);fill-opacity:1;" d="M 139.609375 62.832031 L 136.144531 63.78125 L 135.511719 66.621094 L 133.941406 67.886719 L 133.941406 73.246094 L 137.089844 74.824219 L 141.191406 75.769531 L 143.078125 77.980469 L 144.65625 82.078125 C 144.65625 82.078125 143.390625 84.921875 144.339844 86.5 C 145.285156 88.074219 146.542969 89.648438 146.542969 89.648438 L 149.382813 88.074219 L 150.640625 84.289063 L 154.105469 79.867188 L 154.105469 76.085938 L 155.683594 73.558594 L 154.738281 71.664063 L 152.851563 70.402344 L 155.683594 69.777344 L 158.203125 68.832031 C 158.203125 68.832031 158.421875 64.097656 156.164063 57.75 C 153.910156 51.398438 151.988281 49.226563 151.988281 49.226563 L 148.753906 46.742188 L 145.910156 47.375 L 144.339844 51.480469 L 142.128906 50.847656 L 138.980469 52.738281 L 137.089844 54.316406 L 137.089844 56.210938 L 134.882813 56.523438 L 133.941406 58.734375 L 137.40625 60.9375 L 138.664063 59.683594 L 139.296875 57.472656 L 140.871094 56.84375 L 142.128906 59.050781 L 143.707031 56.523438 L 145.597656 57.785156 L 148.753906 60.628906 L 150.640625 63.148438 L 151.015625 64.152344 L 150.640625 64.726563 L 147.804688 64.726563 L 144.339844 64.097656 "/>
<path style=" stroke:none;fill-rule:nonzero;fill:rgb(100%,100%,100%);fill-opacity:1;" d="M 116.15625 105.78125 L 117.097656 103.886719 L 117.730469 100.097656 L 120.566406 96.949219 L 123.722656 92.84375 L 126.558594 88.742188 L 130.023438 87.484375 L 130.023438 84.957031 L 130.972656 82.117188 L 126.242188 79.28125 C 126.242188 79.28125 123.722656 81.160156 123.722656 79.90625 C 123.722656 78.648438 123.089844 76.753906 123.089844 76.753906 L 118.679688 75.808594 L 116.46875 75.175781 L 111.429688 74.859375 L 110.167969 73.28125 L 108.585938 72.335938 L 106.066406 72.335938 L 104.179688 70.757813 L 104.179688 66.976563 L 107.964844 66.65625 L 110.167969 69.816406 L 111.113281 68.554688 L 112.0625 64.132813 L 113.945313 60.351563 L 117.730469 60.035156 L 119.308594 58.457031 L 124.03125 56.878906 L 120.25 50.570313 L 119.308594 41.105469 L 118.046875 37 L 113.945313 39.210938 L 110.484375 38.578125 L 103.863281 39.527344 L 100.398438 38.265625 L 87.476563 44.570313 L 86.210938 46.464844 L 92.203125 47.726563 L 92.835938 51.832031 L 89.359375 54.035156 L 90.941406 57.507813 L 92.835938 60.351563 L 92.835938 63.5 C 92.835938 63.5 94.089844 66.976563 95.355469 67.289063 C 96.617188 67.605469 98.503906 68.554688 98.503906 68.554688 L 100.398438 72.652344 C 100.398438 72.652344 102.28125 74.226563 104.804688 74.226563 C 107.332031 74.226563 110.167969 76.4375 110.167969 76.4375 L 111.746094 78.015625 L 110.796875 82.117188 L 111.746094 84.324219 L 115.527344 87.800781 L 115.84375 93.160156 L 113.945313 96.316406 L 114.261719 102.625 "/>
<path style=" stroke:none;fill-rule:nonzero;fill:rgb(13.299561%,11.799622%,12.199402%);fill-opacity:1;" d="M 150.953125 222.300781 C 150.953125 251.734375 152.777344 255.097656 167.824219 256.777344 L 176.488281 257.621094 C 180.136719 260.144531 180.136719 269.816406 176.03125 272.339844 C 160.070313 271.496094 142.285156 271.078125 121.308594 271.078125 C 100.785156 271.078125 81.636719 271.496094 66.585938 272.339844 C 62.480469 269.816406 62.480469 260.144531 66.128906 257.621094 L 74.792969 256.777344 C 89.84375 255.097656 91.667969 251.734375 91.667969 222.300781 L 91.667969 183.125 C 91.667969 166.308594 91.667969 161.679688 83.003906 156.214844 L 76.617188 152.433594 C 73.425781 149.910156 72.929688 140.421875 76.902344 139.53125 C 100.777344 134.183594 128.644531 124.492188 144.363281 116.859375 C 147.648438 115.265625 152.320313 116.894531 152.320313 121.265625 C 152.320313 133.910156 150.953125 150.332031 150.953125 169.25 "/>
<path style=" stroke:none;fill-rule:nonzero;fill:rgb(13.299561%,11.799622%,12.199402%);fill-opacity:1;" d="M 248.949219 125.585938 C 243.019531 125.585938 242.5625 126.007813 242.5625 135.257813 L 242.5625 198.332031 C 242.5625 221.878906 242.5625 247.949219 274.484375 247.949219 C 280.871094 247.949219 288.167969 245.007813 293.640625 241.644531 C 298.195313 242.90625 300.933594 247.53125 300.019531 252.578125 C 287.253906 265.191406 262.628906 276.964844 234.355469 276.964844 C 196.503906 276.964844 183.277344 256.777344 183.277344 229.03125 L 183.277344 135.257813 C 183.277344 126.429688 182.824219 125.585938 174.613281 125.585938 L 160.476563 125.585938 C 155.460938 123.90625 152.945313 112.851563 157.1875 110.859375 C 168.992188 105.304688 182.855469 96.992188 193.796875 90.265625 C 202.007813 84.800781 215.164063 76.992188 231.695313 61.980469 C 234.367188 59.554688 243.019531 59.128906 243.019531 65.210938 L 243.019531 94.472656 C 243.019531 102.460938 243.476563 102.882813 251.683594 102.882813 L 292.269531 102.882813 C 294.546875 104.5625 295.917969 107.085938 295.917969 110.871094 C 295.917969 115.492188 294.546875 123.0625 289.992188 125.585938 "/>
</g>
</svg>
